<?xml version="1.0" encoding="UTF-8" standalone="no"?><!DOCTYPE svg PUBLIC "-//W3C//DTD SVG 1.1//EN" "http://www.w3.org/Graphics/SVG/1.1/DTD/svg11.dtd"><svg width="100%" height="100%" viewBox="0 0 40 40" version="1.1" xmlns="http://www.w3.org/2000/svg" xmlns:xlink="http://www.w3.org/1999/xlink" xml:space="preserve" style="fill-rule:evenodd;clip-rule:evenodd;stroke-linejoin:round;stroke-miterlimit:1.41421;"><path d="M35.806,9.996l-30.426,0l0,-0.004l-0.019,0c-1.809,0 -3.277,-0.852 -3.277,-1.901c0,-1.048 1.468,-1.9 3.277,-1.9c0.049,0 0.098,0.001 0.147,0.002l30.196,0c0.039,-0.001 0.078,-0.002 0.117,-0.002c1.444,0 2.617,0.852 2.617,1.9c0,1.049 -1.173,1.901 -2.617,1.901l-0.015,0l0,0.004Z" style="fill:#fff;"/><path d="M35.806,20.808l-30.426,0l0,-0.004l-0.019,0c-1.809,0 -3.277,-0.851 -3.277,-1.9c0,-1.049 1.468,-1.9 3.277,-1.9c0.049,0 0.098,0 0.147,0.002l30.196,0c0.039,-0.002 0.078,-0.002 0.117,-0.002c1.444,0 2.617,0.851 2.617,1.9c0,1.049 -1.173,1.9 -2.617,1.9l-0.015,0l0,0.004Z" style="fill:#fff;"/><path d="M35.806,31.897l-30.426,0l0,-0.004l-0.019,0.001c-1.809,0 -3.277,-0.852 -3.277,-1.901c0,-1.048 1.468,-1.9 3.277,-1.9c0.049,0 0.098,0.001 0.147,0.002l30.196,0c0.039,-0.001 0.078,-0.002 0.117,-0.002c1.444,0 2.617,0.852 2.617,1.9c0,1.049 -1.173,1.901 -2.617,1.901l-0.015,-0.001l0,0.004Z" style="fill:#fff;"/></svg>