<?xml version="1.0" encoding="UTF-8" standalone="no"?><!DOCTYPE svg PUBLIC "-//W3C//DTD SVG 1.1//EN" "http://www.w3.org/Graphics/SVG/1.1/DTD/svg11.dtd"><svg width="100%" height="100%" viewBox="0 0 40 40" version="1.1" xmlns="http://www.w3.org/2000/svg" xmlns:xlink="http://www.w3.org/1999/xlink" xml:space="preserve" style="fill-rule:evenodd;clip-rule:evenodd;stroke-linejoin:round;stroke-miterlimit:1.41421;"><path d="M35.727,9.526l-30.426,0l0,-0.006l-0.019,0c-1.809,0 -3.277,-1.3 -3.277,-2.902c0,-1.601 1.468,-2.902 3.277,-2.902c0.049,0 0.098,0.001 0.147,0.003l30.196,0c0.039,-0.002 0.078,-0.003 0.118,-0.003c1.444,0 2.616,1.301 2.616,2.902c0,1.602 -1.172,2.902 -2.616,2.902l-0.016,0l0,0.006Z" style="fill:#373737;"/><path d="M35.727,22.905l-30.426,0l0,-0.006l-0.019,0c-1.809,0 -3.277,-1.3 -3.277,-2.902c0,-1.601 1.468,-2.902 3.277,-2.902c0.049,0 0.098,0.001 0.147,0.003l30.196,0c0.039,-0.002 0.078,-0.003 0.118,-0.003c1.444,0 2.616,1.301 2.616,2.902c0,1.602 -1.172,2.902 -2.616,2.902l-0.016,0l0,0.006Z" style="fill:#373737;"/><path d="M35.727,35.843l-30.426,0l0,-0.006l-0.019,0c-1.809,0 -3.277,-1.301 -3.277,-2.902c0,-1.602 1.468,-2.902 3.277,-2.902c0.049,0 0.098,0.001 0.147,0.003l30.196,0c0.039,-0.002 0.078,-0.003 0.118,-0.003c1.444,0 2.616,1.3 2.616,2.902c0,1.601 -1.172,2.902 -2.616,2.902l-0.016,0l0,0.006Z" style="fill:#373737;"/></svg>