<?xml version="1.0" encoding="UTF-8" standalone="no"?><!DOCTYPE svg PUBLIC "-//W3C//DTD SVG 1.1//EN" "http://www.w3.org/Graphics/SVG/1.1/DTD/svg11.dtd"><svg width="100%" height="100%" viewBox="0 0 40 40" version="1.1" xmlns="http://www.w3.org/2000/svg" xmlns:xlink="http://www.w3.org/1999/xlink" xml:space="preserve" style="fill-rule:evenodd;clip-rule:evenodd;stroke-linejoin:round;stroke-miterlimit:1.41421;"><path d="M15.89,20.624l-8.94,-8.855l0.004,-0.004l-0.011,-0.011c-1.025,-1.016 -0.943,-2.765 0.184,-3.903c1.127,-1.138 2.875,-1.237 3.901,-0.22c0.028,0.027 0.055,0.056 0.081,0.084l8.883,8.799l8.759,-8.774c0.026,-0.028 0.053,-0.057 0.081,-0.085c1.02,-1.022 2.768,-0.933 3.902,0.199c1.133,1.131 1.225,2.88 0.205,3.902l-0.011,0.011l0.005,0.004l-8.815,8.83l8.445,8.365c0.036,0.033 0.071,0.066 0.106,0.101c1.285,1.273 1.413,3.23 0.286,4.368c-1.127,1.138 -3.085,1.028 -4.37,-0.244l-0.014,-0.014l-0.004,0.004l-8.552,-8.47l-8.578,8.593l-0.004,-0.004l-0.014,0.014c-1.277,1.28 -3.235,1.4 -4.369,0.269c-1.133,-1.132 -1.016,-3.09 0.262,-4.37c0.034,-0.035 0.07,-0.069 0.105,-0.102l8.473,-8.487Z" style="fill:#373737;"/></svg>