<?xml version="1.0" encoding="UTF-8" standalone="no"?><!DOCTYPE svg PUBLIC "-//W3C//DTD SVG 1.1//EN" "http://www.w3.org/Graphics/SVG/1.1/DTD/svg11.dtd"><svg width="100%" height="100%" viewBox="0 0 40 40" version="1.1" xmlns="http://www.w3.org/2000/svg" xmlns:xlink="http://www.w3.org/1999/xlink" xml:space="preserve" style="fill-rule:evenodd;clip-rule:evenodd;stroke-linejoin:round;stroke-miterlimit:1.41421;"><path d="M18.817,27.368l-10.295,11.246l4.776,-11.246l-5.627,0c-3.493,0 -6.329,-2.896 -6.329,-6.389l0,-12.659c0,-3.493 2.836,-6.329 6.329,-6.329l24.131,0c3.493,0 6.329,2.836 6.329,6.329l0,12.659c0,3.493 -2.836,6.389 -6.329,6.389l-12.985,0ZM30.942,3.72l-22.54,0c-3.031,0 -5.254,2.46 -5.254,5.49l0,10.981c0,3.03 2.365,5.177 5.395,5.177l7.025,0l-3.487,7.575l6.242,-7.498l12.761,-0.077c3.03,0 5.189,-2.147 5.189,-5.177l0,-10.981c0,-3.03 -2.301,-5.49 -5.331,-5.49Z" style="fill:#fff;"/></svg>